<?xml version="1.0" standalone="no"?>
<!DOCTYPE svg PUBLIC "-//W3C//DTD SVG 20010904//EN"
 "http://www.w3.org/TR/2001/REC-SVG-20010904/DTD/svg10.dtd">
<svg version="1.0" xmlns="http://www.w3.org/2000/svg"
 width="512.000000pt" height="512.000000pt" viewBox="0 0 512.000000 512.000000"
 preserveAspectRatio="xMidYMid meet">

<g transform="translate(0.000000,512.000000) scale(0.100000,-0.100000)"
fill="#000000" stroke="none">
<path d="M2400 5114 c-322 -40 -591 -171 -815 -398 -199 -201 -313 -415 -372
-696 -24 -118 -24 -382 0 -500 59 -281 174 -496 372 -696 201 -203 421 -322
705 -381 117 -24 380 -24 502 0 270 54 494 174 694 372 202 199 322 421 381
705 24 118 24 382 0 500 -39 185 -110 356 -212 510 -63 95 -258 291 -351 352
-161 107 -335 180 -506 213 -81 16 -328 28 -398 19z m375 -423 c333 -87 594
-350 687 -691 33 -122 33 -338 0 -460 -93 -341 -350 -600 -687 -691 -118 -33
-346 -32 -465 0 -342 92 -599 347 -692 688 -31 112 -31 354 0 466 103 377 407
648 797 710 69 12 281 -2 360 -22z"/>
<path d="M2255 2014 c-16 -2 -66 -9 -110 -15 -478 -62 -943 -351 -1230 -764
-202 -289 -317 -641 -319 -975 -1 -115 1 -128 23 -163 13 -21 42 -50 64 -65
34 -23 52 -27 107 -27 55 0 73 4 107 27 70 46 84 81 95 229 15 219 60 394 148
569 197 395 562 672 1010 767 72 15 134 18 415 17 300 0 339 -2 426 -21 350
-79 644 -266 852 -542 171 -227 263 -482 285 -794 11 -145 28 -184 99 -228 57
-36 154 -34 210 3 59 39 85 87 91 166 10 141 -37 423 -100 601 -201 571 -680
1013 -1258 1161 -179 46 -233 51 -565 55 -176 2 -333 1 -350 -1z"/>
</g>
</svg>
